<svg id="visual" viewBox="0 0 900 600" width="900" height="600" xmlns="http://www.w3.org/2000/svg" xmlns:xlink="http://www.w3.org/1999/xlink" version="1.1"><path d="M0 496L8.3 498.7C16.7 501.3 33.3 506.7 50 506.2C66.7 505.7 83.3 499.3 100 499C116.7 498.7 133.3 504.3 150 506.7C166.7 509 183.3 508 200 506.7C216.7 505.3 233.3 503.7 250 502.8C266.7 502 283.3 502 300 504.5C316.7 507 333.3 512 350 514.5C366.7 517 383.3 517 400 514.3C416.7 511.7 433.3 506.3 450 506C466.7 505.7 483.3 510.3 500 512.2C516.7 514 533.3 513 550 510C566.7 507 583.3 502 600 501.8C616.7 501.7 633.3 506.3 650 510C666.7 513.7 683.3 516.3 700 515.5C716.7 514.7 733.3 510.3 750 506.7C766.7 503 783.3 500 800 498.8C816.7 497.7 833.3 498.3 850 500.2C866.7 502 883.3 505 891.7 506.5L900 508L900 601L891.7 601C883.3 601 866.7 601 850 601C833.3 601 816.7 601 800 601C783.3 601 766.7 601 750 601C733.3 601 716.7 601 700 601C683.3 601 666.7 601 650 601C633.3 601 616.7 601 600 601C583.3 601 566.7 601 550 601C533.3 601 516.7 601 500 601C483.3 601 466.7 601 450 601C433.3 601 416.7 601 400 601C383.3 601 366.7 601 350 601C333.3 601 316.7 601 300 601C283.3 601 266.7 601 250 601C233.3 601 216.7 601 200 601C183.3 601 166.7 601 150 601C133.3 601 116.7 601 100 601C83.3 601 66.7 601 50 601C33.3 601 16.7 601 8.3 601L0 601Z" fill="#EC407A" stroke-linecap="round" stroke-linejoin="miter"></path></svg>